<?xml version="1.0" encoding="utf-8"?>
<!-- Generator: Adobe Illustrator 27.5.0, SVG Export Plug-In . SVG Version: 6.00 Build 0)  -->
<svg version="1.1" xmlns="http://www.w3.org/2000/svg" xmlns:xlink="http://www.w3.org/1999/xlink" x="0px" y="0px"
	 viewBox="0 0 3710 3710" style="enable-background:new 0 0 3710 3710;" xml:space="preserve">
<g id="Background">
	<g>
		<g>
			<rect style="fill:#FFFFFF;" width="3710" height="3710"/>
		</g>
	</g>
</g>
<g id="Illustration">
	<g>
		<linearGradient id="SVGID_1_" gradientUnits="userSpaceOnUse" x1="3585.5771" y1="4081.4114" x2="1094.1025" y2="987.1564">
			<stop  offset="0" style="stop-color:#DAE3FE"/>
			<stop  offset="1" style="stop-color:#E9EFFD"/>
		</linearGradient>
		<path style="fill:url(#SVGID_1_);" d="M2900.157,2861.149c-57.228,60.247-111.377,99.1-154.159,129.797
			c-502.893,360.831-1097.948,255.651-1224.415,229.964c-186.751-37.93-547.736-111.248-808.721-418.162
			c-394.85-464.335-333.366-1195.882-27.094-1678.786c56.022-88.331,351.946-578.591,953.411-657.214
			c364-47.581,788.307,48.385,1095.578,305.817C3379.748,1312.939,3333.831,2404.59,2900.157,2861.149z"/>
		<g>
			<g>
				
					<linearGradient id="SVGID_00000065035906383127734380000002427044326961548458_" gradientUnits="userSpaceOnUse" x1="846.5357" y1="1152.8368" x2="805.1904" y2="796.2361">
					<stop  offset="0" style="stop-color:#FF928E"/>
					<stop  offset="1" style="stop-color:#FE7062"/>
				</linearGradient>
				<path style="fill:url(#SVGID_00000065035906383127734380000002427044326961548458_);" d="M1042.432,954.427H534.685
					c-20.499,0-37.117-16.618-37.117-37.117V586.688c0-19.697,15.385-35.963,35.051-37.059l527.34-29.393
					c22.079-1.231,40.33,16.996,39.128,39.076l-19.593,360.014C1078.423,939.013,1062.148,954.427,1042.432,954.427z"/>
				<g>
					
						<linearGradient id="SVGID_00000106837634982284707930000005937120994339661700_" gradientUnits="userSpaceOnUse" x1="788.1639" y1="625.1172" x2="819.1727" y2="149.6506">
						<stop  offset="0" style="stop-color:#FF928E"/>
						<stop  offset="1" style="stop-color:#FE7062"/>
					</linearGradient>
					<path style="fill:url(#SVGID_00000106837634982284707930000005937120994339661700_);" d="M800.414,754.927l277.551-231.151
						c-5.415-2.583-11.544-3.9-18.006-3.539l-527.34,29.392c-9.068,0.506-17.221,4.242-23.38,10.048L716.962,752.86
						C739.513,773.832,776.61,774.751,800.414,754.927z"/>
				</g>
			</g>
			<path style="opacity:0.6;fill:#FFFFFF;" d="M761.83,743.471c-13.799,0-27.535-4.937-38.573-14.682l-78.266-69.095
				c-2.297-2.028-2.515-5.533-0.487-7.829c2.028-2.301,5.536-2.517,7.829-0.487l78.265,69.094
				c16.627,14.676,40.816,15.888,58.829,2.943l40.555-29.149c2.496-1.788,5.953-1.217,7.743,1.268
				c1.788,2.488,1.221,5.953-1.268,7.742l-40.556,29.149C785.618,739.816,773.7,743.471,761.83,743.471z"/>
			<path style="opacity:0.6;fill:#FFFFFF;" d="M619.544,635.377c-1.305,0-2.615-0.457-3.669-1.389l-10.536-9.301
				c-2.297-2.028-2.515-5.533-0.488-7.829c2.026-2.301,5.533-2.514,7.829-0.487l10.536,9.301c2.297,2.028,2.515,5.533,0.487,7.83
				C622.608,634.743,621.078,635.377,619.544,635.377z"/>
		</g>
		<g>
			<g>
				
					<linearGradient id="SVGID_00000167362085964873797900000016653518418440357770_" gradientUnits="userSpaceOnUse" x1="1126.9517" y1="1343.2029" x2="1183.8014" y2="893.5757">
					<stop  offset="0" style="stop-color:#FF928E"/>
					<stop  offset="1" style="stop-color:#FE7062"/>
				</linearGradient>
				<path style="fill:url(#SVGID_00000167362085964873797900000016653518418440357770_);" d="M1421.92,1220.618H914.173
					c-20.499,0-37.117-16.618-37.117-37.117V852.88c0-19.697,15.385-35.963,35.051-37.06l527.34-29.393
					c22.079-1.231,40.33,16.996,39.128,39.076l-19.593,360.014C1457.911,1205.204,1441.635,1220.618,1421.92,1220.618z"/>
				<g>
					
						<linearGradient id="SVGID_00000165220423034006375580000014275035007165893821_" gradientUnits="userSpaceOnUse" x1="1161.0747" y1="879.3425" x2="1254.1005" y2="326.3542">
						<stop  offset="0" style="stop-color:#FF928E"/>
						<stop  offset="1" style="stop-color:#FE7062"/>
					</linearGradient>
					<path style="fill:url(#SVGID_00000165220423034006375580000014275035007165893821_);" d="M1179.902,1021.118l277.551-231.151
						c-5.415-2.583-11.544-3.9-18.006-3.539l-527.34,29.392c-9.068,0.506-17.221,4.242-23.38,10.048l207.722,193.184
						C1119,1040.024,1156.098,1040.943,1179.902,1021.118z"/>
				</g>
			</g>
			<path style="opacity:0.6;fill:#FFFFFF;" d="M1141.317,1009.662c-13.799,0-27.535-4.937-38.573-14.682l-78.266-69.095
				c-2.297-2.028-2.515-5.533-0.487-7.829c2.028-2.301,5.536-2.517,7.829-0.487l78.265,69.094
				c16.627,14.676,40.816,15.888,58.829,2.943l40.555-29.149c2.496-1.788,5.953-1.217,7.743,1.268
				c1.788,2.488,1.221,5.953-1.268,7.742l-40.556,29.149C1165.105,1006.008,1153.188,1009.662,1141.317,1009.662z"/>
			<path style="opacity:0.6;fill:#FFFFFF;" d="M999.031,901.569c-1.305,0-2.615-0.457-3.669-1.389l-10.536-9.301
				c-2.297-2.028-2.515-5.533-0.488-7.829c2.026-2.301,5.533-2.514,7.829-0.487l10.536,9.301c2.296,2.028,2.515,5.533,0.487,7.829
				C1002.096,900.935,1000.566,901.569,999.031,901.569z"/>
		</g>
		<g>
			<g>
				
					<linearGradient id="SVGID_00000149342599122948551140000009685751395509973668_" gradientUnits="userSpaceOnUse" x1="3670.342" y1="673.6843" x2="-402.7402" y2="3795.6946">
					<stop  offset="0" style="stop-color:#09005D"/>
					<stop  offset="1" style="stop-color:#1A0F91"/>
				</linearGradient>
				<path style="fill:url(#SVGID_00000149342599122948551140000009685751395509973668_);" d="M3088.134,2792.823
					c0,24.648-20.186,44.814-44.858,44.814H617.547c-24.671,0-44.858-20.167-44.858-44.814l-20.185-1394
					c0-24.648,29.04-72.767,82.26-69.151l2370.69-61.341c30.956-0.801,60.886,11.114,82.807,32.964
					c21.921,21.85,33.916,51.724,33.184,82.651L3088.134,2792.823z"/>
				<path style="fill:#7D97F4;" d="M3043.847,2749.828c0,23.341-19.097,42.438-42.439,42.438H676.044
					c-23.341,0-42.438-19.098-42.438-42.438l-19.047-1265.485c2.243-76.154,69.009-103.524,109.482-101.908l2272.09-60.957
					c21.748-0.583,42.775,7.796,58.178,23.159c15.403,15.364,23.875,36.39,23.329,58.139L3043.847,2749.828z"/>
				<g>
					<path style="fill:#91B3FA;" d="M658.739,2145.858c-1.881,0-3.419-1.509-3.446-3.395l-1.507-102.629
						c-0.027-1.903,1.491-3.468,3.395-3.496c1.773,0.035,3.466,1.492,3.496,3.395l1.508,102.629
						c0.027,1.903-1.491,3.467-3.395,3.496C658.772,2145.858,658.755,2145.858,658.739,2145.858z"/>
					<path style="fill:#91B3FA;" d="M655.044,1894.364c-1.881,0-3.419-1.509-3.446-3.395l-5.774-393.068
						c0.121-26.258,8.21-47.23,24.045-62.404c28.806-27.602,73.915-26.215,75.789-26.141l725.582-19.471
						c1.733-0.099,3.483,1.447,3.536,3.351c0.051,1.903-1.45,3.486-3.355,3.536l-725.777,19.471
						c-2.032-0.062-44.295-1.37-71.008,24.23c-14.435,13.831-21.811,33.14-21.922,57.392l5.774,393.002
						c0.027,1.903-1.491,3.468-3.395,3.496C655.078,1894.364,655.061,1894.364,655.044,1894.364z"/>
				</g>
				<path style="fill:#91B3FA;" d="M736.053,2679.625c2.435-104.594,1.528-1030.799-4.474-1110.79
					c-6.001-79.991,118.58-94.995,309.849-103.997c191.269-9.002,1805.087-44.642,1846.64-48.011
					c93.4-7.574,112.732,132.031,103.388,435.103c-7.02,227.694-18.655,602.782-24.009,775.276
					c-1.594,51.361-43.574,92.112-94.959,92.254c-388.351,1.067-1876.784,5.333-1975.87,8.284
					C782.591,2731.138,735.088,2721.099,736.053,2679.625z"/>
			</g>
			
				<linearGradient id="SVGID_00000158003111758814024030000001311886018559617942_" gradientUnits="userSpaceOnUse" x1="1883.5289" y1="1438.2489" x2="1857.5815" y2="2720.0205">
				<stop  offset="0" style="stop-color:#09005D"/>
				<stop  offset="1" style="stop-color:#1A0F91"/>
			</linearGradient>
			<path style="fill:url(#SVGID_00000158003111758814024030000001311886018559617942_);" d="M3277.414,2908.786H432.586
				c-4.128,0-7.505-3.377-7.505-7.505v-107.472c0-4.128,3.377-7.505,7.505-7.505h2844.828c4.128,0,7.505,3.377,7.505,7.505v107.472
				C3284.919,2905.409,3281.542,2908.786,3277.414,2908.786z"/>
		</g>
		<g>
			<g>
				
					<linearGradient id="SVGID_00000132081479284208073400000013630159891683811503_" gradientUnits="userSpaceOnUse" x1="2282.2986" y1="581.4072" x2="1627.6339" y2="1918.2993">
					<stop  offset="0" style="stop-color:#E1473D"/>
					<stop  offset="1" style="stop-color:#E9605A"/>
				</linearGradient>
				<path style="fill:url(#SVGID_00000132081479284208073400000013630159891683811503_);" d="M1816.799,866.476l-821.397,679.061
					c15.949,7.677,34.018,11.629,53.09,10.634l1556.258-81.095c26.761-1.395,50.857-12.331,69.092-29.395l-610.834-572.217
					C1996.695,811.343,1887.246,808.236,1816.799,866.476z"/>
			</g>
			
				<linearGradient id="SVGID_00000166661870230057044650000001107245819290006405_" gradientUnits="userSpaceOnUse" x1="913.563" y1="2686.4333" x2="2727.5796" y2="1533.9393">
				<stop  offset="0" style="stop-color:#FF928E"/>
				<stop  offset="1" style="stop-color:#FE7062"/>
			</linearGradient>
			<path style="fill:url(#SVGID_00000166661870230057044650000001107245819290006405_);" d="M2573.42,2705.067H1075.275
				c-60.484,0-109.517-49.032-109.517-109.517v-975.522c0-58.116,45.396-106.112,103.422-109.347l1555.954-86.725
				c65.146-3.631,118.995,50.148,115.45,115.298l-57.809,1062.247C2679.614,2659.588,2631.592,2705.067,2573.42,2705.067z"/>
			<g>
				
					<linearGradient id="SVGID_00000113334858253867510360000003430120918096386192_" gradientUnits="userSpaceOnUse" x1="2282.7581" y1="581.6317" x2="1628.0944" y2="1918.5216">
					<stop  offset="0" style="stop-color:#E1473D"/>
					<stop  offset="1" style="stop-color:#E9605A"/>
				</linearGradient>
				<path style="fill:url(#SVGID_00000113334858253867510360000003430120918096386192_);" d="M1859.328,2116.427l818.935-682.028
					c-15.976-7.62-34.06-11.505-53.128-10.443l-1555.954,86.725c-26.756,1.492-50.812,12.515-68.985,29.645l612.9,570.004
					C1679.633,2172.211,1789.092,2174.921,1859.328,2116.427z"/>
			</g>
			<g>
				<defs>
					<path id="SVGID_00000017517229057180426330000010498424530798810283_" d="M1859.328,2116.427l792.736-660.209
						c12.354-10.289,6.124-30.304-9.875-31.896c-5.573-0.555-11.268-519.855-17.053-519.533l-1555.954,86.725
						c-18.545,1.034-35.792,525.814-50.682,534.866c-10.127,6.156-11.322,20.439-2.644,28.51l597.242,555.441
						C1679.633,2172.211,1789.092,2174.921,1859.328,2116.427z"/>
				</defs>
				<clipPath id="SVGID_00000154419833846359902860000009065840312868338054_">
					<use xlink:href="#SVGID_00000017517229057180426330000010498424530798810283_"  style="overflow:visible;"/>
				</clipPath>
				<path style="clip-path:url(#SVGID_00000154419833846359902860000009065840312868338054_);fill:#91B3FA;" d="M2450.57,2295.574
					H1217.05V1119.899c0-44.992,41.838-82.172,95.381-84.761l1031.114-49.849c58.085-2.808,107.026,35.951,107.026,84.761V2295.574z
					"/>
				
					<linearGradient id="SVGID_00000103245600306443251960000003597601553703670682_" gradientUnits="userSpaceOnUse" x1="1259.2592" y1="1685.201" x2="2408.3606" y2="1685.201">
					<stop  offset="0" style="stop-color:#DAE3FE"/>
					<stop  offset="1" style="stop-color:#E9EFFD"/>
				</linearGradient>
				
					<path style="clip-path:url(#SVGID_00000154419833846359902860000009065840312868338054_);fill:url(#SVGID_00000103245600306443251960000003597601553703670682_);" d="
					M2408.361,2295.574H1259.259V1200.359c0-41.913,38.975-76.549,88.853-78.96l960.548-46.437
					c54.11-2.616,99.701,33.49,99.701,78.96V2295.574z"/>
			</g>
		</g>
		<g>
			<g>
				
					<linearGradient id="SVGID_00000139973474985068891750000011733841377197942663_" gradientUnits="userSpaceOnUse" x1="2146.1606" y1="768.7991" x2="2058.3027" y2="1295.9471">
					<stop  offset="0" style="stop-color:#E1473D"/>
					<stop  offset="1" style="stop-color:#E9605A"/>
				</linearGradient>
				<path style="fill:url(#SVGID_00000139973474985068891750000011733841377197942663_);" d="M1407.221,1378.291l163.559-131.511
					c15.77-12.681,35.624-19.623,56.121-19.623h955.174c48.519,0,87.853,38.09,87.853,85.079v263.022
					c0,46.987-39.335,85.078-87.853,85.078h-955.174c-20.498,0-40.351-6.941-56.121-19.621l-163.559-131.512
					C1364.912,1475.182,1364.912,1412.311,1407.221,1378.291z"/>
				<path style="fill:#FFFFFF;" d="M2341.754,1301.781h141.254c37.111,0,67.196,29.134,67.196,65.073v136.789
					c0,35.938-30.085,65.071-67.196,65.071h-141.254c-37.11,0-67.194-29.133-67.194-65.071v-136.789
					C2274.56,1330.914,2304.645,1301.781,2341.754,1301.781z"/>
				
					<linearGradient id="SVGID_00000087384692860014267490000017947325200356055696_" gradientUnits="userSpaceOnUse" x1="2550.1482" y1="1172.1003" x2="2301.3806" y2="1584.1212">
					<stop  offset="0" style="stop-color:#E1473D"/>
					<stop  offset="1" style="stop-color:#E9605A"/>
				</linearGradient>
				<polygon style="fill:url(#SVGID_00000087384692860014267490000017947325200356055696_);" points="2335.542,1401.193 
					2409.476,1531.436 2489.221,1339.057 2402.202,1440.445 				"/>
			</g>
			<g style="opacity:0.76;">
				<path style="fill:#FFFFFF;" d="M1739.977,1397.699l-15.465,4.17c-0.416,0.112-0.845,0.169-1.276,0.169h-6.311
					c-1.916,0-3.677-1.107-4.45-2.86c-1.088-2.466-2.307-4.875-3.66-7.228c-1.877-3.254-4.004-6.254-6.386-9.003
					c-2.043-2.312-4.47-4.156-7.28-5.532c-2.636-1.288-5.76-2.164-9.369-2.626c-0.471-0.06-0.963-0.055-1.432,0.014
					c-2.982,0.442-5.853,1.134-8.611,2.07c-2.981,1.014-5.835,2.315-8.557,3.905c-3.237,1.881-5.62,4.231-7.152,7.05
					c-1.532,2.821-2.298,6.04-2.298,9.654c0,3.616,0.805,6.833,2.426,9.653c1.617,2.82,4.044,5.244,7.28,7.268
					c3.405,1.881,7.025,3.762,10.857,5.64c3.831,1.881,7.874,3.616,12.133,5.207c0.339,0.145,0.722,0.291,1.15,0.433
					c0.423,0.146,0.805,0.217,1.149,0.217c0.34,0.145,0.723,0.291,1.15,0.433c0.423,0.146,0.807,0.291,1.15,0.434
					c0.85,0.292,1.66,0.58,2.426,0.868c0.767,0.292,1.49,0.579,2.172,0.868c5.108,1.881,10.089,4.088,14.942,6.616
					c4.853,2.532,9.408,5.315,13.666,8.353c4.426,3.036,7.703,6.833,9.834,11.389c2.127,4.555,3.192,10.016,3.192,16.379
					c0,6.219-1.277,11.752-3.831,16.596c-2.555,4.847-6.303,9.002-11.239,12.474c-5.109,3.471-10.601,6.04-16.476,7.701
					c-5.875,1.661-12.305,2.495-19.285,2.495h-10.217c-8.175,0-15.455-0.834-21.84-2.495c-6.386-1.661-11.794-4.302-16.221-7.919
					c-4.598-3.613-8.557-7.917-11.878-12.907c-2.379-3.575-4.43-7.501-6.153-11.781c-1.106-2.748,0.565-5.832,3.447-6.516
					l11.472-2.722c0.371-0.088,0.751-0.133,1.131-0.133h6.148c2.037,0,3.855,1.267,4.572,3.173c1.219,3.242,2.733,6.234,4.543,8.975
					c2.383,3.617,5.193,6.942,8.43,9.98c2.894,2.46,6.13,4.447,9.707,5.966c3.418,1.451,7.146,2.407,11.187,2.868
					c0.37,0.042,0.756,0.047,1.128,0.013c3.522-0.319,6.742-1.062,9.652-2.23c3.064-1.228,5.874-2.855,8.429-4.882
					c3.066-2.457,5.364-5.314,6.897-8.568c1.532-3.254,2.298-6.905,2.298-10.956c0-4.193-0.894-7.81-2.682-10.846
					c-1.788-3.038-4.47-5.567-8.046-7.593c-3.576-2.024-7.368-3.939-11.367-5.75c-4.003-1.806-8.218-3.504-12.644-5.097
					c-0.343-0.143-0.639-0.251-0.895-0.326c-0.255-0.071-0.554-0.18-0.894-0.325c-0.171,0-0.382-0.034-0.639-0.109
					c-0.255-0.071-0.554-0.179-0.894-0.325c-0.171-0.141-0.384-0.25-0.639-0.325c-0.255-0.071-0.555-0.179-0.894-0.325
					c-0.172,0-0.384-0.034-0.639-0.108c-0.256-0.071-0.555-0.18-0.895-0.325c-5.28-1.736-10.261-3.759-14.942-6.075
					c-4.686-2.312-9.24-4.844-13.666-7.592c-4.258-2.892-7.451-6.543-9.578-10.956c-2.132-4.409-3.193-9.653-3.193-15.728
					c0-5.64,1.233-10.772,3.704-15.402c2.466-4.627,6.086-8.678,10.856-12.149c4.937-3.472,10.257-6.075,15.965-7.81
					c5.703-1.736,11.706-2.603,18.008-2.603l10.217-0.218c6.981,0.146,13.24,1.122,18.775,2.929
					c5.531,1.811,10.256,4.593,14.176,8.353c3.915,3.617,7.319,7.629,10.217,12.04c2.894,4.413,5.364,9.149,7.407,14.209V1397.699z"
					/>
				<path style="fill:#FFFFFF;" d="M1806.581,1362.988c0.381,0,0.76,0.058,1.131,0.145c0.835,0.194,1.671,0.289,2.507,0.289
					c1.022,0,2.128,0,3.321,0c0.511,0,1.022,0,1.533,0c0.51,0,1.106,0,1.788,0c0.511,0.145,1.022,0.217,1.533,0.217
					c0.51,0,1.021,0,1.532,0c1.361,0,2.766,0.037,4.215,0.109c1.445,0.074,2.938,0.183,4.47,0.325
					c1.361,0.145,2.766,0.292,4.215,0.434c1.445,0.145,2.85,0.292,4.215,0.433c2.893,0.434,5.659,0.976,8.301,1.627
					c2.638,0.651,5.32,1.556,8.047,2.712c3.576,1.447,6.809,3.254,9.707,5.423c2.893,2.17,5.448,4.773,7.663,7.81
					c2.383,3.037,4.127,6.183,5.236,9.438c1.106,3.254,1.661,6.545,1.661,9.87c0,4.051-0.639,7.956-1.916,11.715
					c-1.277,3.763-3.193,7.451-5.748,11.065c-2.554,3.616-5.579,6.653-9.067,9.111c-3.492,2.461-7.536,4.338-12.134,5.64
					c-1.876,0.579-3.792,1.051-5.747,1.41c-1.96,0.363-3.959,0.688-6.003,0.976c-2.043,0.292-4.048,0.542-6.003,0.76
					c-1.96,0.216-3.876,0.325-5.748,0.325c-1.194,0.145-2.387,0.217-3.576,0.217c-1.194,0-2.387,0-3.576,0l-9.943-0.211
					c-0.183-0.004-0.366,0.006-0.548,0.026c-1.103,0.124-2.204,0.185-3.303,0.185c-1.193,0-2.387,0-3.576,0l-2.624-0.074
					c-2.76-0.078-5.039,2.138-5.039,4.898v54.924c0,2.706-2.194,4.9-4.9,4.9h-5.317h-12.98c-2.707,0-4.9-2.194-4.9-4.9v-134.898
					c0-2.707,2.194-4.901,4.9-4.901h5.317H1806.581z M1793.105,1424.689c0,2.706,2.194,4.9,4.9,4.9h10.681v0.217
					c5.109-0.142,10.002-0.651,14.688-1.519c4.681-0.868,9.152-2.169,13.41-3.905c4.254-1.589,7.448-4.121,9.579-7.593
					c2.127-3.471,3.192-7.81,3.192-13.016c0-5.782-1.109-10.521-3.321-14.209c-2.215-3.688-5.536-6.325-9.962-7.919
					c-4.43-1.589-9.068-2.82-13.92-3.688c-4.854-0.867-10.006-1.372-15.454-1.518c-0.343,0-0.682,0-1.021,0
					c-0.343,0-0.682,0-1.022,0c-0.511,0-0.938,0-1.277,0c-0.343,0-0.682,0-1.021,0c-0.343,0-0.683,0-1.022,0
					c-0.343,0-0.683,0-1.021,0c-0.511,0-0.938,0-1.277,0c-0.343,0-0.682,0-1.022,0l0,0c-2.785-0.118-5.108,2.108-5.108,4.896
					V1424.689z"/>
				<path style="fill:#FFFFFF;" d="M2014.939,1501.222c1.071,3.176-1.292,6.466-4.643,6.466h-3.393h-14.873
					c-2.103,0-3.971-1.342-4.643-3.335l-13.332-39.539c-0.672-1.993-2.54-3.335-4.643-3.335h-37.863
					c-2.13,0-4.016,1.376-4.666,3.404l-12.632,39.399c-0.65,2.028-2.536,3.404-4.666,3.404h-6.642h-11.602
					c-3.342,0-5.703-3.272-4.651-6.444l44.769-134.898c0.665-2.004,2.539-3.357,4.651-3.357h6.681h22.024
					c2.103,0,3.972,1.342,4.643,3.335L2014.939,1501.222z M1945.603,1404.719l-11.133,36.998c-0.946,3.145,1.408,6.313,4.692,6.313
					h22.749c3.309,0,5.666-3.212,4.675-6.369l-11.616-36.997C1953.525,1400.058,1946.994,1400.097,1945.603,1404.719z"/>
				<path style="fill:#FFFFFF;" d="M2175.232,1502.787c0,2.706-2.194,4.9-4.9,4.9h-5.318h-12.98c-2.707,0-4.901-2.194-4.901-4.9
					v-62.799c0-5.595-7.866-6.821-9.568-1.492l-21.016,65.782c-0.649,2.031-2.536,3.409-4.668,3.409h-6.639h-10.491
					c-2.122,0-4.002-1.365-4.659-3.382l-21.778-66.849c-1.728-5.304-9.56-4.06-9.56,1.518v63.813c0,2.706-2.194,4.9-4.9,4.9h-5.317
					h-12.98c-2.707,0-4.9-2.194-4.9-4.9v-134.898c0-2.707,2.194-4.901,4.9-4.901h5.317h26.067c2.124,0,4.006,1.369,4.661,3.389
					l28.021,86.424c0.679,2.315,1.277,4.522,1.789,6.617c0.51,2.098,1.021,4.159,1.532,6.183c0-0.288,0.041-0.577,0.127-0.868
					c0.085-0.289,0.212-0.576,0.384-0.868c0.168-0.288,0.295-0.576,0.383-0.867c0.084-0.288,0.128-0.577,0.128-0.868
					c0.167-0.722,0.339-1.41,0.51-2.061c0.168-0.651,0.34-1.264,0.511-1.844c0-0.722,0.083-1.41,0.255-2.061
					c0.167-0.651,0.339-1.264,0.511-1.844l27.782-87.909c0.645-2.038,2.535-3.424,4.673-3.424h6.626h25.497
					c2.707,0,4.9,2.194,4.9,4.901V1502.787z"/>
			</g>
		</g>
		<g>
			
				<linearGradient id="SVGID_00000135672633489727014260000001667732564929783737_" gradientUnits="userSpaceOnUse" x1="-1195.424" y1="4005.1533" x2="-1172.9241" y2="3897.1541" gradientTransform="matrix(-0.9505 0.8882 -0.6827 -0.7307 5072.0063 7139.3511)">
				<stop  offset="0" style="stop-color:#FEBBBA"/>
				<stop  offset="1" style="stop-color:#FF928E"/>
			</linearGradient>
			<path style="fill:url(#SVGID_00000135672633489727014260000001667732564929783737_);" d="M2862.264,2050.398
				c0,0-291.778-132.981-51.162-199.744c0,0-2.888-88.988-3.067-104.33c6.103,0,25.815,10.911,27.999,36.366
				c2.083,24.271,13.935,38.016,13.935,38.016s6.928-25.227,20.708-23.314l-9.573,43.362c0,0-11.836,29.834-28.144,29.834
				c-7.168,1.525-162.091,46.829,25.722,93.831c0,0,11.949,3.477,12.836,9.107C2874.219,1990.67,2877.44,2026.716,2862.264,2050.398
				z"/>
			
				<linearGradient id="SVGID_00000093141357278407488330000002952182626511804851_" gradientUnits="userSpaceOnUse" x1="-5107.0581" y1="2030.4702" x2="-5063.6807" y2="1932.8718" gradientTransform="matrix(1 0 0 1 8151.5752 0)">
				<stop  offset="0" style="stop-color:#09005D"/>
				<stop  offset="1" style="stop-color:#1A0F91"/>
			</linearGradient>
			<path style="fill:url(#SVGID_00000093141357278407488330000002952182626511804851_);" d="M2994.704,1819.783
				c0,0,32.314,15.718,38.256,33.774c4.767,14.488,40.498,16.355,44.028,44.848c1.822,14.711,12.708,26.492,27.361,28.738
				c36.493,5.593,92.732,24.543,101.73,87.903c6.868,48.362-17.786,66.7-43.66,73.047c-19.004,4.662-31.633,23.146-27.789,42.332
				c3.687,18.402-1.811,39.676-33.692,56.498c-71.442,37.697-142.788-89.308-142.788-89.308l-14.621-221.759L2994.704,1819.783z"/>
			
				<linearGradient id="SVGID_00000132805141830287241920000005210182201336444082_" gradientUnits="userSpaceOnUse" x1="-5057.8628" y1="3162.437" x2="-4976.5845" y2="3162.437" gradientTransform="matrix(1 0 0 1 8052.1079 0)">
				<stop  offset="0" style="stop-color:#09005D"/>
				<stop  offset="1" style="stop-color:#1A0F91"/>
			</linearGradient>
			<path style="fill:url(#SVGID_00000132805141830287241920000005210182201336444082_);" d="M2994.342,3142.944l4.623,38.005
				c0.877,7.21,6.554,12.911,13.77,13.735c12.183,1.392,31.735,2.818,50.864,0.796c8.396-0.888,13.847-9.39,11.29-17.437
				c-4.663-14.671-13.195-36.696-25.494-49.656h-42.16C2999.44,3128.388,2993.401,3135.206,2994.342,3142.944z"/>
			
				<linearGradient id="SVGID_00000054956517506519677890000002670178975049667716_" gradientUnits="userSpaceOnUse" x1="-5362.2168" y1="3027.5208" x2="-5354.75" y2="3311.25" gradientTransform="matrix(1 0 0 1 8052.1079 0)">
				<stop  offset="0" style="stop-color:#FEBBBA"/>
				<stop  offset="1" style="stop-color:#FF928E"/>
			</linearGradient>
			<path style="fill:url(#SVGID_00000054956517506519677890000002670178975049667716_);" d="M2680.28,2713.116l-23.263,26.48
				c0,0,23.83,241.375,28.068,337.925c0.665,15.137-3.251,30.096-11.196,42.998l-41.436,67.288l105.309-62.141l2.096-12.851
				l-17.239-23.703c0,0,19.633-195.23,22.58-270.4c2.948-75.17-15.866-106.168-15.866-106.168L2680.28,2713.116z"/>
			
				<linearGradient id="SVGID_00000099621074194535713540000012855923248839910061_" gradientUnits="userSpaceOnUse" x1="-5435.4761" y1="3147.5977" x2="-5303.9614" y2="3147.5977" gradientTransform="matrix(1 0 0 1 8052.1079 0)">
				<stop  offset="0" style="stop-color:#09005D"/>
				<stop  offset="1" style="stop-color:#1A0F91"/>
			</linearGradient>
			<path style="fill:url(#SVGID_00000099621074194535713540000012855923248839910061_);" d="M2625.518,3197.554h33.606
				c6.29,0,12.223-2.888,16.059-7.873c10.477-13.613,32.182-40.172,42.562-40.865c13.972-0.933,12.185,48.738,12.185,48.738h7.832
				l9.92-61.723c2.496-15.53-5.227-30.915-19.172-38.191c0,0-3.194,23.62-20.512,34.068c-17.318,10.448-70.474,47.864-70.474,47.864
				s-6.51-0.928-13.658,0.363C2613.262,3181.852,2614.743,3197.554,2625.518,3197.554z"/>
			
				<linearGradient id="SVGID_00000127028328776470433780000009517422104685425807_" gradientUnits="userSpaceOnUse" x1="-5115.312" y1="3021.0234" x2="-5107.8457" y2="3304.7529" gradientTransform="matrix(1 0 0 1 8052.1079 0)">
				<stop  offset="0" style="stop-color:#FEBBBA"/>
				<stop  offset="1" style="stop-color:#FF928E"/>
			</linearGradient>
			<path style="fill:url(#SVGID_00000127028328776470433780000009517422104685425807_);" d="M2808.371,2717.618
				c0,0,139.602,264.811,161.793,325.271c22.191,60.46,29.965,110.898,30.263,115.675c0.465,7.463,9.748,14.622,35.335,14.622
				c13.205,0,19.672-5.294,22.839-10.417c2.702-4.371,2.841-9.841,0.565-14.448c-8.075-16.343-33.702-68.57-43.193-92.258
				c-11.332-28.282-35.707-156.452-49.075-201.015c-13.368-44.563-28.479-92.903-86.694-137.43
				C2880.204,2717.618,2840.242,2678.477,2808.371,2717.618z"/>
			
				<linearGradient id="SVGID_00000155125354874277897430000006485650075073805697_" gradientUnits="userSpaceOnUse" x1="2304.7271" y1="2532.324" x2="3607.1602" y2="1657.1451">
				<stop  offset="0" style="stop-color:#4F52FF"/>
				<stop  offset="1" style="stop-color:#4042E2"/>
			</linearGradient>
			<path style="fill:url(#SVGID_00000155125354874277897430000006485650075073805697_);" d="M2965.906,2283.711
				c-36.011-152.593,55.216-238.897,55.216-238.897c-57.562-55.253-162.44-80.396-162.44-80.396s-100.076,73.165-88.204,130.432
				c6.958,33.565,70.344,201.045,70.344,201.045S2899.434,2323.635,2965.906,2283.711z"/>
			
				<linearGradient id="SVGID_00000107556493354204349460000009903494838476153245_" gradientUnits="userSpaceOnUse" x1="3740.2937" y1="1357.3539" x2="3368.1711" y2="1846.6261">
				<stop  offset="0" style="stop-color:#4F52FF"/>
				<stop  offset="1" style="stop-color:#4042E2"/>
			</linearGradient>
			<path style="fill:url(#SVGID_00000107556493354204349460000009903494838476153245_);" d="M2831.912,2361.352
				c14.655-44.15,8.91-65.456,8.91-65.456c54.489,23.216,125.084-12.185,125.084-12.185s95.842,43.954,46.753,158.96
				c-39.856,93.377-125.49,280.478-125.49,280.478c-89.685,18.172-230.153,16.447-230.153,16.447
				C2713.75,2535.498,2817.257,2405.502,2831.912,2361.352z"/>
			
				<linearGradient id="SVGID_00000029007216682191942060000000448539410106503612_" gradientUnits="userSpaceOnUse" x1="53.9288" y1="2040.8556" x2="37.2174" y2="1907.1636" gradientTransform="matrix(-1 0 0 1 2966.2915 0)">
				<stop  offset="0" style="stop-color:#FEBBBA"/>
				<stop  offset="1" style="stop-color:#FF928E"/>
			</linearGradient>
			<path style="fill:url(#SVGID_00000029007216682191942060000000448539410106503612_);" d="M2967.971,1922.066l-14.587,73.023
				c2.803,11.583-7.757,9.688-19.468,7.48c-19.179-3.616-43.898-11.063-52.162-25.987c-0.841-1.519-1.261-3.236-1.498-4.956
				l31.286-32.706c-0.998-7.235,2.913-14.257,9.59-17.217l24.272-10.762C2954.75,1906.798,2965.567,1912.13,2967.971,1922.066z"/>
			<g>
				
					<linearGradient id="SVGID_00000026846293575620223960000002289369020072261278_" gradientUnits="userSpaceOnUse" x1="-5366.0874" y1="2337.8413" x2="-5172.937" y2="1994.0979" gradientTransform="matrix(0.9917 0.1286 -0.1286 0.9917 8480.1943 355.9484)">
					<stop  offset="0" style="stop-color:#FEBBBA"/>
					<stop  offset="1" style="stop-color:#FF928E"/>
				</linearGradient>
				<path style="fill:url(#SVGID_00000026846293575620223960000002289369020072261278_);" d="M2944.327,1804.147
					c0,0-36.269,10.062-66.093,56.72c-29.824,46.659-15.338,71.865,6.186,77.858c21.523,5.993,58.813,0.909,97.668-26.692
					C3020.942,1884.432,2991.26,1792.731,2944.327,1804.147z"/>
				
					<linearGradient id="SVGID_00000070797838281669087680000006159117873003329448_" gradientUnits="userSpaceOnUse" x1="-5309.502" y1="2270.9514" x2="-5266.1255" y2="2173.3545" gradientTransform="matrix(0.9917 0.1286 -0.1286 0.9917 8480.1943 355.9484)">
					<stop  offset="0" style="stop-color:#09005D"/>
					<stop  offset="1" style="stop-color:#1A0F91"/>
				</linearGradient>
				<path style="fill:url(#SVGID_00000070797838281669087680000006159117873003329448_);" d="M2957.778,1891.338
					c0,0,35.369-69.335-28.974-78.55l-16.541,8.634c0,0-18.423-43.372,22.887-57.58c41.31-14.208,84.678,7.575,94.416,62.01
					c9.738,54.436,8.02,89.807-22.705,111.264c-30.725,21.457-38.372-8.381-38.372-8.381s17.999-21.461,13.53-34.771
					c-4.469-13.31-20.479,8.835-20.479,8.835L2957.778,1891.338z"/>
			</g>
			
				<linearGradient id="SVGID_00000039107860167722101850000014213833011260895153_" gradientUnits="userSpaceOnUse" x1="-99.9637" y1="2065.6475" x2="-234.6794" y2="1782.3481" gradientTransform="matrix(-1 0 0 1 2966.2915 0)">
				<stop  offset="0" style="stop-color:#FEBBBA"/>
				<stop  offset="1" style="stop-color:#FF928E"/>
			</linearGradient>
			<path style="fill:url(#SVGID_00000039107860167722101850000014213833011260895153_);" d="M3093.924,1880.606
				c0,0,165.357,215.582-72.802,164.208c-47.244,29.604-42.838,66.242-42.838,66.242s404.508,51.198,149.391-224.015
				c-4.16-4.488-3.568-11.185-4.101-17.281c-1.121-12.824-11.663-37.125-12.39-49.977c-0.906-16-24.617-51.13-39.711-47.609
				c-10.296,2.402-6.354,20.164-4.661,30.601l19.358,44.169c1.975,12.176-1.421,9.191-13.723,8.28c0,0-7.578-2.564-8.346-0.618
				C3061.685,1860.729,3093.924,1880.606,3093.924,1880.606z"/>
		</g>
		<g>
			<g>
				
					<linearGradient id="SVGID_00000057111549793430680850000008501897883139305897_" gradientUnits="userSpaceOnUse" x1="662.99" y1="1996.6628" x2="1029.4163" y2="2896.0745">
					<stop  offset="0" style="stop-color:#4F52FF"/>
					<stop  offset="1" style="stop-color:#4042E2"/>
				</linearGradient>
				<path style="fill:url(#SVGID_00000057111549793430680850000008501897883139305897_);" d="M1275.55,2350.393
					c-1.882-29.086-19.447-54.853-45.776-67.357l-341.118-162.009c-21.846-10.375-47.199-10.375-69.044,0l-341.118,162.009
					c-26.328,12.505-43.895,38.271-45.776,67.357c-31.997,494.593,285.13,674.802,389.087,720.324
					c20.617,9.029,44.041,9.029,64.658,0C990.419,3025.196,1307.547,2844.986,1275.55,2350.393z"/>
				<path style="fill:#BDD0FB;" d="M750.952,2191.75c-2.735,0-5.357-1.54-6.608-4.174c-1.732-3.647-0.18-8.007,3.466-9.739
					l80.601-38.281c3.65-1.734,8.007-0.179,9.739,3.466c1.732,3.648,0.18,8.007-3.466,9.739l-80.601,38.281
					C753.069,2191.523,752.003,2191.75,750.952,2191.75z"/>
				<path style="fill:#BDD0FB;" d="M458.801,2458.704c-3.923,0-7.168-3.112-7.301-7.064c-1.083-32.238-0.515-65.857,1.689-99.921
					c1.396-21.607,14.464-40.824,34.103-50.153l229.474-108.985c3.647-1.731,8.009-0.178,9.739,3.466
					c1.732,3.647,0.18,8.007-3.468,9.739l-229.473,108.985c-14.852,7.053-24.734,21.573-25.789,37.89
					c-2.171,33.59-2.732,66.727-1.666,98.488c0.136,4.034-3.025,7.415-7.059,7.552
					C458.966,2458.704,458.884,2458.704,458.801,2458.704z"/>
				<path style="fill:#7D97F4;" d="M1193.061,2369.698c-0.377-7.374-4.766-13.956-11.436-17.123l-318.887-151.452
					c-5.445-2.586-11.764-2.586-17.208,0l-318.887,151.452c-6.669,3.167-11.059,9.75-11.436,17.123
					c-9.43,184.498,33.185,338.438,126.753,457.751c71.336,90.965,154.786,139.712,203.686,162.456
					c5.388,2.505,11.587,2.505,16.975,0c48.9-22.743,132.35-71.491,203.686-162.456
					C1159.874,2708.135,1202.49,2554.194,1193.061,2369.698z"/>
			</g>
			<g>
				<path style="fill:#FFFFFF;" d="M853.369,2834.937c-38.813,0-65.684-29.107-65.684-67.921c0-40.304,27.617-67.921,67.175-67.921
					s65.682,27.617,66.43,67.921c0,38.813-26.126,67.921-66.43,67.921H853.369z M810.253,2619.281l-11.496-236.724
					c-1.557-32.054,24.012-58.894,56.104-58.894l0,0c32.092,0,57.661,26.84,56.104,58.894l-11.496,236.724
					c-1.156,23.795-20.785,42.494-44.608,42.494l0,0C831.037,2661.776,811.408,2643.077,810.253,2619.281z"/>
			</g>
		</g>
	</g>
</g>
</svg>
